<svg xmlns="http://www.w3.org/2000/svg" viewBox="0 0 500 400">
  <!-- Background -->
  <rect width="500" height="400" fill="#f5f5f5"/>
  
  <!-- KM Large Letters -->
  <g fill="#000" font-family="Arial, sans-serif" font-weight="bold">
    <!-- K -->
    <path d="M135 165 L155 165 L155 205 L175 185 L200 185 L175 210 L205 250 L180 250 L160 220 L155 220 L155 265 L135 265 Z"/>
    
    <!-- M -->
    <path d="M245 165 L270 165 L295 220 L320 165 L345 165 L355 265 L335 265 L330 190 L310 235 L280 235 L260 190 L255 265 L245 265 Z"/>
  </g>
  
  <!-- KOSMA -->
  <g fill="#000" font-family="Arial, sans-serif" font-weight="bold" font-size="24">
    <text x="167" y="295">K</text>
    <text x="185" y="295">O</text>
    <text x="205" y="295">S</text>
    <text x="225" y="295">M</text>
    <text x="250" y="295">A</text>
  </g>
  
  <!-- MEDIA with lines -->
  <g fill="#000" font-family="Arial, sans-serif" font-weight="normal" font-size="12">
    <!-- Left line -->
    <line x1="130" y1="325" x2="180" y2="325" stroke="#000" stroke-width="2"/>
    <!-- MEDIA text -->
    <text x="218" y="327">M</text>
    <text x="230" y="327">E</text>
    <text x="240" y="327">D</text>
    <text x="252" y="327">I</text>
    <text x="260" y="327">A</text>
    <!-- Right line -->
    <line x1="315" y1="325" x2="370" y2="325" stroke="#000" stroke-width="2"/>
  </g>
</svg>
